<svg xmlns="http://www.w3.org/2000/svg" viewBox="0 0 250 250"><path fill="#262c3a" d="M27.97 119.42V58.95h21.19c3.62 0 6.91.89 9.9 2.66 2.98 1.77 5.36 4.15 7.13 7.13 1.78 2.98 2.66 6.28 2.66 9.9s-.89 6.93-2.66 9.92c-1.77 3-4.15 5.38-7.13 7.16-2.98 1.77-6.28 2.66-9.9 2.66H35.77v21.03h-7.8Zm21.19-52.66H35.77v23.77h13.39c2.2 0 4.2-.53 5.99-1.6a12.24 12.24 0 0 0 4.29-4.29c1.07-1.79 1.6-3.79 1.6-6s-.54-4.16-1.6-5.97q-1.605-2.715-4.29-4.32c-1.79-1.07-3.79-1.6-5.99-1.6Zm101.8 52.66V58.95h21.19c3.62 0 6.91.89 9.9 2.66 2.98 1.77 5.36 4.15 7.13 7.13 1.78 2.98 2.66 6.28 2.66 9.9s-.89 6.93-2.66 9.92c-1.77 3-4.15 5.38-7.13 7.16-2.98 1.77-6.28 2.66-9.9 2.66h-13.39v21.03h-7.8Zm21.19-52.66h-13.39v23.77h13.39c2.2 0 4.2-.53 5.99-1.6a12.24 12.24 0 0 0 4.29-4.29c1.07-1.79 1.6-3.79 1.6-6s-.54-4.16-1.6-5.97q-1.605-2.715-4.29-4.32c-1.79-1.07-3.79-1.6-5.99-1.6ZM24.87 171.74v-18.09c0-4.06 1-7.79 3-11.16 2-3.38 4.69-6.06 8.06-8.06 3.38-2 7.11-3 11.22-3s7.79 1 11.16 3c3.38 2 6.06 4.69 8.06 8.06s3 7.1 3 11.16h-7.8c0-2.65-.66-5.07-1.96-7.24a15.16 15.16 0 0 0-5.22-5.22c-2.17-1.31-4.58-1.96-7.24-1.96s-5.12.66-7.29 1.96a15.16 15.16 0 0 0-5.22 5.22c-1.31 2.17-1.96 4.58-1.96 7.24v18.09c0 2.65.65 5.06 1.96 7.24q1.965 3.255 5.22 5.22c2.17 1.31 4.6 1.96 7.29 1.96s5.06-.65 7.24-1.96q3.255-1.965 5.22-5.22c1.31-2.17 1.96-4.58 1.96-7.24h7.8q0 6.105-3 11.16c-2 3.38-4.69 6.06-8.06 8.06q-5.07 3-11.16 3c-6.09 0-7.84-1-11.22-3s-6.06-4.68-8.06-8.06q-3-5.07-3-11.16m52.62 0v-18.09c0-4.06 1-7.79 3-11.16 2-3.38 4.68-6.06 8.04-8.06q5.04-3 11.19-3c6.15 0 7.83 1 11.19 3s6.04 4.69 8.04 8.06q3 5.07 3 11.16v18.09q0 6.105-3 11.16c-2 3.38-4.68 6.06-8.04 8.06q-5.04 3-11.19 3c-6.15 0-7.83-1-11.19-3s-6.04-4.68-8.04-8.06q-3-5.07-3-11.16m36.64 0v-18.09c0-2.65-.64-5.07-1.94-7.24a14.8 14.8 0 0 0-5.22-5.22c-2.19-1.31-4.61-1.96-7.26-1.96s-5.07.66-7.26 1.96a14.8 14.8 0 0 0-5.22 5.22c-1.29 2.17-1.94 4.58-1.94 7.24v18.09c0 2.65.65 5.06 1.94 7.24a14.8 14.8 0 0 0 5.22 5.22c2.19 1.31 4.61 1.96 7.26 1.96s5.07-.65 7.26-1.96a14.8 14.8 0 0 0 5.22-5.22c1.29-2.17 1.94-4.58 1.94-7.24m18.55 21.19v-60.47h21.19c3.62 0 6.92.89 9.9 2.66s5.36 4.15 7.13 7.13 2.66 6.28 2.66 9.9c0 4.17-1.15 7.9-3.46 11.19q-3.465 4.935-8.94 7.11l14.37 22.48h-9.25l-13.49-21.03h-12.3v21.03h-7.8Zm21.19-52.66h-13.39v23.77h13.39c2.2 0 4.2-.53 6-1.6q2.685-1.605 4.29-4.29c1.605-2.685 1.6-3.79 1.6-6s-.53-4.16-1.6-5.97-2.5-3.25-4.29-4.32-3.79-1.6-6-1.6Zm30.81 52.66v-60.47h7.86l25.22 44.65v-44.65h7.85v60.47h-7.85l-25.22-44.65v44.65zM140.4 83.96h-.01s-.04-.05-.06-.07l-.1-.1c-1.97-1.92-4.65-2.93-7.44-2.84-.66-8.67-5.81-16.42-13.55-20.34-5.88-2.98-12.57-3.5-18.84-1.48l-.14.03c-1.25.41-2.51.95-3.86 1.66l-.22.11c-.12.06-.24.12-.35.18-.36.2-.7.42-1.04.64l-.47.3c-.18.11-.36.22-.56.36l-.2.1c-5.41 3.86-9 9.59-10.09 16.14-.1.58-.15 1.17-.21 1.75l.64.13-.67.05-.02.21c-.05.6-.07 1.24-.07 2.02v.81c-3.37.56-6.39 2.26-8.57 4.81-2.5 2.93-3.71 6.67-3.41 10.51.31 3.85 2.09 7.34 5.02 9.84 2.9 2.48 6.67 3.7 10.51 3.41 1-.08 2.01-.29 3.16-.66 3 4.94 7.94 8.13 13.64 8.78.16.02.31.03.4.02.54.05 1.12.1 1.71.1 4.86 0 9.59-1.97 13.05-5.42 2.09 1.23 4.46 1.88 6.88 1.88 3.63 0 7.05-1.42 9.6-3.97l.1-.11c2.48-2.52 3.86-5.84 3.9-9.39v-.15c.01-.28-.02-.56-.06-.83-.02-.13-.04-.26-.05-.38l-.03-.37c-.02-.35-.05-.71-.12-1.06a8 8 0 0 0-.28-.99c1.23-.78 2.24-1.76 3-2.92l.15-.26c.35-.56.6-1.05.8-1.52.02-.05.04-.1.05-.16.47-1.22.71-2.46.71-3.69 0-.08-.01-.15-.03-.2a10.18 10.18 0 0 0-2.9-6.96Zm-2.54 15.51h.02zm-3.14-6.8-.11.1v.02c-.09.07-.17.13-.25.19-.91-.79-1.88-1.44-2.89-1.93.2-.58.39-1.2.57-1.87.88-.49 1.96-.37 2.66.33.88.88.88 2.31.03 3.16Zm-10.75 11.39a3.96 3.96 0 0 0-.84-2.93 3.97 3.97 0 0 0-2.66-1.48 3.987 3.987 0 0 0-4.41 3.5c-.66 5.76-5.9 9.91-11.65 9.26-3.29-.38-6.2-2.32-7.87-5.22.69-.81 1.03-1.84.94-2.9a3.96 3.96 0 0 0-1.38-2.71 3.96 3.96 0 0 0-2.9-.94 3.96 3.96 0 0 0-2.71 1.38 6.43 6.43 0 0 1-4.35 2.25h-.39c-1.67 0-3.18-.49-4.38-1.52l-.09-.08a6.43 6.43 0 0 1-2.16-4.34c-.14-1.73.4-3.4 1.52-4.71a6.43 6.43 0 0 1 4.04-2.21c.77 2.07 1.8 4.01 3.08 5.8A3.99 3.99 0 0 0 91 98.88c.83 0 1.63-.26 2.31-.74 1.79-1.28 2.2-3.77.93-5.55a16.9 16.9 0 0 1-2.37-4.77c-.14-.45-.27-.91-.39-1.45l-.03-.15c-.1-.46-.18-.91-.24-1.37-.02-.14-.03-.28-.04-.42l-.04-.48c-.02-.24-.04-.47-.05-.71 0-.4 0-.81.02-1.21v-.21c0-.07 0-.14.01-.21.03-.45.09-.89.16-1.34l.04-.33c.03-.17.07-.34.11-.52l.06-.28c.32-1.43.79-2.78 1.41-4 .26-.5.54-1.01.9-1.55l.09-.12c.27-.42.56-.82.89-1.24 4.97-6.23 13.74-8.14 20.86-4.54 8.32 4.21 11.66 14.41 7.45 22.73-.04.08-.07.16-.08.23-.93.77-1.46 1.85-1.46 3.01 0 2.2 1.79 3.98 3.98 3.98 1.8 0 3.51.88 4.57 2.36.03.04.06.08.12.14.11.17.2.35.29.53l.15.29s.06.1.08.15c.06.15.11.32.15.48l.11.36c.02.07.05.14.06.22.05.25.08.54.09.92.05 1.55-.5 3.01-1.56 4.11l-.08.08c-1.67 1.67-4.41 2.07-6.57 1 .5-1.38.84-2.8 1.01-4.23Z"/></svg>