<svg xmlns="http://www.w3.org/2000/svg" viewBox="0 0 653.75 184.08"><path fill="#fff" d="M108.61 48.33c-4.86-2.9-10.31-4.36-16.19-4.36-4.53 0-8.82.88-12.78 2.62a33 33 0 0 0-8.89 5.75v-6.89H60.2v94.68h10.55v-40.1c2.6 2.36 5.58 4.3 8.89 5.75 3.95 1.74 8.25 2.62 12.78 2.62 5.88 0 11.32-1.47 16.19-4.36 4.85-2.89 8.77-6.81 11.66-11.66 2.9-4.86 4.36-10.3 4.36-16.19s-1.47-11.33-4.36-16.19a33.2 33.2 0 0 0-11.66-11.66Zm5.47 27.84c0 3.96-.98 7.63-2.91 10.9a22.1 22.1 0 0 1-7.86 7.86c-3.27 1.93-6.94 2.91-10.9 2.91s-7.63-.98-10.9-2.91a22 22 0 0 1-7.85-7.86c-1.93-3.27-2.91-6.94-2.91-10.9s.98-7.62 2.91-10.9 4.57-5.92 7.85-7.86c3.27-1.93 6.94-2.91 10.9-2.91s7.62.98 10.9 2.91 5.92 4.58 7.86 7.86c1.93 3.27 2.91 6.93 2.91 10.9m172.14-27.84c-4.86-2.9-10.31-4.36-16.19-4.36-4.53 0-8.83.88-12.78 2.62a33 33 0 0 0-8.89 5.75v-6.89h-10.55v94.68h10.55v-40.1c2.6 2.37 5.58 4.3 8.89 5.75 3.95 1.74 8.25 2.62 12.78 2.62 5.88 0 11.32-1.47 16.19-4.36 4.85-2.89 8.77-6.81 11.65-11.66 2.9-4.86 4.36-10.3 4.36-16.19s-1.47-11.33-4.36-16.19a33.3 33.3 0 0 0-11.65-11.66Zm5.47 27.84c0 3.96-.98 7.63-2.91 10.9a22.1 22.1 0 0 1-7.86 7.86c-3.28 1.93-6.94 2.91-10.9 2.91s-7.63-.98-10.9-2.91a22 22 0 0 1-7.85-7.86c-1.93-3.27-2.91-6.94-2.91-10.9s.98-7.62 2.91-10.9 4.57-5.92 7.85-7.86c3.28-1.93 6.94-2.91 10.9-2.91s7.62.98 10.9 2.91 5.92 4.58 7.86 7.86c1.93 3.27 2.91 6.94 2.91 10.9m73.09 10.66c-1.84 3.25-4.46 5.93-7.78 7.96-3.32 2.02-7.03 3.05-11.03 3.05s-7.68-.98-10.93-2.91a22.06 22.06 0 0 1-7.82-7.86c-1.93-3.27-2.91-6.94-2.91-10.9s.98-7.63 2.91-10.9c1.93-3.28 4.56-5.92 7.82-7.86 3.25-1.93 6.93-2.91 10.93-2.91s7.71 1.03 11.03 3.05c3.33 2.03 5.95 4.71 7.78 7.96l.24.43h11.46l-.43-1.14a31.5 31.5 0 0 0-6.75-10.76c-2.96-3.12-6.48-5.6-10.45-7.39-3.98-1.79-8.32-2.69-12.89-2.69-5.94 0-11.41 1.47-16.26 4.36s-8.76 6.81-11.62 11.66c-2.87 4.86-4.32 10.3-4.32 16.19s1.45 11.33 4.32 16.19c2.86 4.85 6.77 8.77 11.62 11.66 4.86 2.9 10.33 4.36 16.26 4.36 4.57 0 8.91-.91 12.89-2.7 3.97-1.78 7.48-4.27 10.45-7.38s5.24-6.74 6.75-10.76l.43-1.14h-11.46zm71.25-38.5c-4.86-2.9-10.3-4.36-16.19-4.36s-11.33 1.47-16.19 4.36a33.2 33.2 0 0 0-11.66 11.66c-2.9 4.86-4.36 10.3-4.36 16.19s1.47 11.33 4.36 16.19c2.89 4.85 6.81 8.77 11.66 11.66 4.86 2.89 10.31 4.36 16.19 4.36s11.33-1.47 16.19-4.36c4.84-2.88 8.77-6.81 11.66-11.66 2.9-4.86 4.36-10.31 4.36-16.19s-1.47-11.33-4.36-16.19c-2.89-4.85-6.82-8.77-11.66-11.66m5.48 27.84c0 3.96-.98 7.63-2.91 10.9a22.1 22.1 0 0 1-7.86 7.86c-3.28 1.93-6.95 2.91-10.9 2.91s-7.62-.98-10.9-2.91-5.92-4.58-7.86-7.86c-1.93-3.27-2.91-6.93-2.91-10.9s.98-7.63 2.91-10.9c1.94-3.28 4.58-5.93 7.86-7.86 3.27-1.93 6.94-2.91 10.9-2.91s7.62.98 10.9 2.91 5.92 4.58 7.86 7.86c1.93 3.27 2.91 6.94 2.91 10.9m54.69-27.14c-4.24 2.05-7.98 4.75-11.15 8.05V45.44h-20.51v10.55h9.96v40.37h-9.96v10.55h37.11V96.36h-16.6v-13.1c0-4.99 1.23-9.6 3.65-13.7 2.43-4.11 5.75-7.44 9.89-9.89 4.13-2.44 8.76-3.68 13.74-3.68h10.36V45.44h-10.36c-5.76 0-11.18 1.21-16.12 3.59Zm93.35 9.59c-2.65-4.43-6.23-8.02-10.66-10.66-4.44-2.65-9.43-3.99-14.83-3.99-3.93 0-7.68.73-11.14 2.17a29.5 29.5 0 0 0-7.72 4.68v-5.37h-10.55v61.47h10.55V73.38c0-3.42.85-6.6 2.54-9.46s3.99-5.17 6.83-6.86c2.83-1.68 6.03-2.54 9.49-2.54s6.66.85 9.49 2.54c2.84 1.7 5.16 4.01 6.87 6.87 1.71 2.85 2.57 6.03 2.57 9.45v33.54h10.55V73.38c0-5.35-1.34-10.31-3.99-14.75ZM222.36 77.81h-.01s-.05-.07-.08-.09l-.13-.12c-2.55-2.48-6.01-3.79-9.61-3.68-.86-11.21-7.5-21.22-17.51-26.29-7.6-3.85-16.25-4.52-24.35-1.91l-.18.04c-1.62.53-3.25 1.23-4.98 2.15l-.28.14c-.15.07-.3.15-.45.23-.46.26-.9.54-1.34.83l-.61.39c-.23.14-.47.29-.72.46l-.26.13c-6.99 4.99-11.63 12.4-13.05 20.87-.13.75-.2 1.51-.27 2.26l.83.17-.86.07-.03.26c-.06.77-.09 1.6-.09 2.61v1.06c-4.35.73-8.26 2.92-11.08 6.22-3.24 3.79-4.8 8.62-4.41 13.58.39 4.97 2.7 9.49 6.48 12.72 3.75 3.2 8.62 4.78 13.58 4.4 1.29-.1 2.6-.38 4.08-.86 3.88 6.39 10.26 10.51 17.62 11.35.2.02.4.04.52.03.7.07 1.45.13 2.21.13 6.28 0 12.39-2.54 16.86-7 2.71 1.6 5.77 2.44 8.89 2.44 4.7 0 9.12-1.83 12.41-5.13l.13-.14c3.2-3.25 4.98-7.55 5.04-12.14l.02-.19c0-.37-.05-.72-.1-1.08-.02-.16-.05-.33-.06-.49l-.04-.48c-.03-.46-.06-.92-.15-1.37-.09-.44-.22-.86-.36-1.28 1.59-1.01 2.89-2.28 3.88-3.77.06-.09.1-.18.19-.34.45-.73.78-1.35 1.03-1.97.03-.06.05-.13.06-.2.61-1.57.92-3.18.92-4.77 0-.1-.02-.19-.03-.26-.06-3.4-1.39-6.59-3.75-8.99Zm-3.28 20.05h.03zm-4.05-8.78-.15.13v.02c-.11.09-.22.17-.33.25a17.6 17.6 0 0 0-3.73-2.49c.26-.76.5-1.55.73-2.42 1.13-.63 2.53-.47 3.43.43 1.14 1.14 1.14 2.99.04 4.09Zm-13.9 14.72a5.136 5.136 0 0 0-4.52-5.7c-2.82-.33-5.37 1.71-5.7 4.53-.86 7.45-7.63 12.81-15.06 11.97-4.25-.49-8.01-2.99-10.17-6.75a5.18 5.18 0 0 0 1.22-3.75 5.1 5.1 0 0 0-1.79-3.51 5.16 5.16 0 0 0-3.75-1.22c-1.37.11-2.61.75-3.5 1.79a8.3 8.3 0 0 1-5.62 2.91h-.23c-.09 0-.19-.01-.27 0-2.15 0-4.11-.64-5.66-1.96l-.12-.1a8.3 8.3 0 0 1-2.79-5.61c-.18-2.23.52-4.39 1.97-6.09a8.3 8.3 0 0 1 5.22-2.85 32.5 32.5 0 0 0 3.97 7.5 5.16 5.16 0 0 0 4.19 2.16 5.153 5.153 0 0 0 4.19-8.14 22 22 0 0 1-3.06-6.16c-.18-.59-.35-1.17-.5-1.87l-.04-.2c-.12-.59-.23-1.18-.31-1.77-.02-.18-.03-.36-.05-.54l-.05-.62c-.03-.31-.05-.61-.06-.91q-.015-.78.03-1.56v-.27c0-.09 0-.18.01-.26.04-.58.12-1.15.2-1.73l.05-.42c.04-.22.09-.45.14-.67l.08-.36c.41-1.85 1.02-3.59 1.83-5.17.33-.65.7-1.3 1.16-2l.11-.16c.35-.54.72-1.06 1.15-1.6 6.43-8.05 17.76-10.52 26.96-5.87 10.75 5.44 15.07 18.62 9.63 29.37-.05.1-.09.2-.11.3-1.2.99-1.89 2.39-1.89 3.88 0 2.84 2.31 5.15 5.14 5.15 2.32 0 4.53 1.14 5.91 3.05.04.05.08.11.15.18.15.22.26.45.38.69l.2.38c.04.06.07.13.1.2.08.2.14.41.2.62l.14.47c.03.09.06.19.08.28.06.33.1.7.12 1.19.07 2.01-.65 3.89-2.01 5.31l-.1.1c-2.16 2.16-5.7 2.67-8.49 1.29a23.8 23.8 0 0 0 1.3-5.47Z"/></svg>