<svg xmlns="http://www.w3.org/2000/svg" viewBox="0 0 250 250"><path fill="#262c3a" d="m205.42 112.33-.03-.02-.15-.15-.24-.23c-4.77-4.65-11.27-7.11-18.02-6.9-1.61-21.02-14.07-39.81-32.84-49.31-14.25-7.22-30.48-8.48-45.67-3.58l-.34.08c-3.03.99-6.09 2.31-9.35 4.03l-.53.26c-.29.14-.57.28-.85.44-.86.48-1.69 1.02-2.51 1.55l-1.15.73c-.44.27-.87.54-1.36.87l-.48.25c-13.12 9.36-21.81 23.26-24.47 39.14-.24 1.41-.37 2.83-.5 4.24l1.56.31-1.61.13-.06.5c-.12 1.44-.17 3-.17 4.9l-.02 1.03c0 .32.02.64.03.96-8.16 1.37-15.49 5.47-20.78 11.66-6.07 7.11-9 16.16-8.26 25.48.74 9.33 5.06 17.8 12.16 23.86 7.04 6.01 16.17 8.97 25.48 8.26 2.42-.19 4.88-.71 7.65-1.6 7.27 11.98 19.25 19.71 33.06 21.29.38.04.75.07.98.06 1.31.12 2.73.24 4.15.24 11.79 0 23.24-4.77 31.63-13.13 5.08 2.99 10.81 4.57 16.68 4.57 8.81 0 17.1-3.44 23.28-9.62l.25-.26c6-6.1 9.35-14.17 9.45-22.77l.03-.36c0-.69-.08-1.35-.18-2.02-.04-.31-.08-.62-.11-.92l-.07-.89c-.06-.86-.12-1.72-.29-2.57-.16-.83-.41-1.61-.67-2.4 2.97-1.9 5.42-4.28 7.28-7.07.11-.16.2-.33.35-.64.85-1.36 1.46-2.53 1.93-3.7.05-.12.09-.24.12-.38 1.15-2.95 1.73-5.96 1.73-8.95 0-.2-.03-.36-.06-.48-.12-6.38-2.61-12.35-7.03-16.87Zm-6.15 37.61.05-.02zm-7.6-16.47-.27.25-.02.04c-.19.17-.39.32-.6.46-2.22-1.91-4.56-3.48-7-4.68.49-1.42.95-2.92 1.37-4.53 2.12-1.19 4.75-.88 6.44.8 2.13 2.13 2.13 5.6.07 7.66Zm-26.07 27.61a9.53 9.53 0 0 0-2.03-7.1 9.56 9.56 0 0 0-6.46-3.58c-5.29-.61-10.08 3.2-10.68 8.49-1.61 13.97-14.31 24.04-28.25 22.45-7.97-.91-15.02-5.62-19.08-12.67l.02-.02a9.63 9.63 0 0 0 2.28-7.03 9.54 9.54 0 0 0-3.36-6.58c-1.96-1.67-4.45-2.47-7.03-2.28-2.57.21-4.9 1.4-6.57 3.36-2.72 3.18-6.51 5.12-10.54 5.46l-.2-.02-.24.02c-.18 0-.36-.02-.51-.01-4.04.02-7.71-1.2-10.61-3.67l-.23-.19a15.58 15.58 0 0 1-5.24-10.52c-.33-4.18.98-8.24 3.7-11.42a15.57 15.57 0 0 1 9.8-5.35 60.7 60.7 0 0 0 7.45 14.06 9.7 9.7 0 0 0 7.87 4.05c2.01 0 3.95-.62 5.6-1.8 4.33-3.09 5.34-9.13 2.25-13.46-2.49-3.5-4.43-7.39-5.74-11.55-.34-1.1-.66-2.2-.95-3.51l-.07-.37c-.23-1.11-.43-2.22-.57-3.33-.04-.34-.06-.68-.08-1.02l-.09-1.16c-.05-.57-.1-1.15-.12-1.72-.02-.97.01-1.95.06-2.94v-.51c.01-.17.01-.33.03-.5.07-1.08.22-2.16.38-3.24l.1-.8c.07-.42.17-.84.26-1.25l.16-.68c.77-3.47 1.92-6.73 3.42-9.7a40 40 0 0 1 2.17-3.76l.21-.29c.67-1.01 1.35-1.99 2.16-3 12.06-15.1 33.32-19.73 50.56-11.01 20.16 10.21 28.27 34.93 18.06 55.09-.1.2-.16.38-.2.56-2.25 1.86-3.54 4.49-3.54 7.29 0 5.32 4.33 9.65 9.65 9.65 4.36 0 8.5 2.14 11.09 5.72.07.1.16.2.28.34.27.41.49.85.71 1.29l.37.72c.07.12.14.24.19.37.16.38.26.77.37 1.17l.26.88c.06.18.12.35.16.53.12.61.19 1.3.22 2.24.12 3.77-1.22 7.29-3.78 9.95l-.19.18c-4.05 4.06-10.7 5.01-15.93 2.42 1.22-3.34 2.04-6.79 2.44-10.26Z"/></svg>